<?xml version="1.0" standalone="no"?>
<!DOCTYPE svg PUBLIC "-//W3C//DTD SVG 20010904//EN"
 "http://www.w3.org/TR/2001/REC-SVG-20010904/DTD/svg10.dtd">
<svg version="1.0" xmlns="http://www.w3.org/2000/svg"
 width="290.000000pt" height="174.000000pt" viewBox="0 0 290.000000 174.000000"
 preserveAspectRatio="xMidYMid meet">

<g transform="translate(0.000000,174.000000) scale(0.100000,-0.100000)"
fill="#000000" stroke="none">
<path d="M0 870 l0 -870 1450 0 1450 0 0 870 0 870 -1450 0 -1450 0 0 -870z
m1374 304 c11 -4 16 -19 16 -44 0 -55 20 -62 21 -8 2 34 3 37 6 13 6 -41 17
-52 61 -60 33 -6 35 -8 19 -20 -19 -13 -23 -35 -7 -35 6 0 10 -5 10 -11 0 -5
-4 -7 -10 -4 -5 3 -10 -1 -10 -10 0 -9 5 -13 10 -10 6 3 10 -3 10 -14 0 -10 3
-28 6 -38 6 -16 5 -15 -9 2 -14 18 -14 16 -4 -30 11 -48 12 -49 18 -20 4 17 8
55 10 85 2 52 3 53 6 13 2 -24 9 -43 14 -43 6 0 8 4 5 9 -3 5 -3 22 0 39 5 22
10 28 24 25 10 -3 21 -11 24 -19 6 -14 36 -8 48 10 4 5 10 -2 13 -17 7 -28 21
-35 27 -15 3 7 12 -3 21 -21 21 -42 21 -45 2 -37 -11 4 -15 -3 -16 -27 -1 -23
-3 -26 -6 -9 -6 29 -23 29 -23 -1 0 -15 9 -29 25 -37 24 -13 24 -15 8 -32 -19
-21 -55 -25 -47 -4 4 10 -2 12 -20 9 -16 -3 -23 -10 -19 -19 3 -8 0 -14 -6
-14 -6 0 -11 10 -11 22 0 28 -6 20 -13 -19 -5 -27 -3 -32 18 -37 16 -4 25 -13
25 -26 0 -11 5 -20 10 -20 6 0 10 -5 10 -11 0 -8 -5 -8 -15 1 -8 7 -15 9 -16
4 -1 -5 -5 2 -9 16 -7 21 -8 19 -8 -15 0 -22 2 -34 5 -26 5 11 7 11 14 0 7
-12 12 -12 30 -1 25 16 37 8 19 -13 -10 -12 -10 -15 0 -15 7 0 10 -6 8 -12 -3
-7 3 -22 13 -32 19 -19 19 -19 19 1 0 14 6 20 18 19 10 0 17 6 16 16 -1 11 4
14 14 11 11 -5 13 -3 7 8 -8 12 -6 12 8 0 19 -15 23 -26 6 -15 -8 4 -9 -3 -4
-25 5 -24 3 -31 -8 -31 -9 0 -22 -7 -31 -15 -9 -10 -17 -11 -21 -5 -4 6 -11 8
-16 4 -5 -3 -7 -10 -4 -15 4 -5 3 -9 0 -9 -3 0 -11 14 -16 30 -6 17 -15 30
-21 30 -5 0 -6 5 -2 12 4 6 3 8 -4 4 -5 -3 -13 0 -16 6 -3 7 -3 0 0 -17 l6
-30 -21 23 -20 24 -6 -39 c-3 -21 -10 -47 -15 -58 -8 -18 -9 -17 -9 7 -1 40
-18 43 -27 6 l-7 -33 -10 29 c-7 21 -12 25 -18 15 -7 -12 -9 -11 -9 1 0 13 -1
13 -10 0 -9 -13 -11 -13 -20 0 -7 11 -10 7 -11 -20 0 -19 -5 -46 -9 -60 -8
-24 -8 -24 -9 -2 -1 24 -21 31 -21 7 0 -8 -4 -15 -10 -15 -5 0 -7 15 -5 33 4
23 1 18 -10 -15 -18 -56 -35 -70 -36 -31 -1 20 -3 22 -6 8 -2 -11 -7 -27 -10
-35 -10 -27 -21 22 -16 67 8 58 -1 77 -27 63 -12 -6 -20 -7 -20 -1 0 5 -8 8
-17 6 -10 -2 -21 -4 -25 -4 -5 -1 -8 -9 -8 -19 0 -10 -3 -21 -6 -25 -10 -9
-34 4 -34 19 0 7 -10 20 -22 28 -22 16 -22 16 -3 31 19 14 19 14 -7 15 -21 0
-28 -5 -28 -19 0 -23 -16 -36 -25 -21 -4 6 -11 8 -16 5 -5 -4 -10 3 -10 14 -5
56 -3 71 6 70 10 0 22 32 24 65 1 11 -4 16 -11 13 -8 -3 -14 5 -15 21 -1 17 2
21 7 11 5 -7 13 -10 17 -5 8 7 9 11 12 39 1 8 4 8 10 -3 6 -8 8 -17 5 -21 -2
-4 -4 -29 -4 -55 0 -27 0 -59 0 -71 0 -36 20 -27 21 10 l2 32 7 -35 c4 -21 8
-27 9 -15 l2 20 9 -20 c7 -16 9 -11 9 21 1 48 8 58 27 39 16 -16 19 -39 4 -30
-13 8 -13 -7 0 -40 8 -20 15 -26 30 -22 11 3 20 1 20 -4 0 -5 -7 -9 -15 -9 -8
0 -15 -4 -15 -10 0 -5 6 -10 13 -10 21 0 36 36 30 73 -3 21 -1 37 7 42 7 5 11
1 10 -11 -4 -32 -1 -36 17 -19 13 14 14 18 3 25 -11 7 -11 20 3 78 18 76 23
147 8 123 -5 -8 -16 -11 -25 -8 -11 5 -14 15 -11 39 4 26 3 29 -4 13 -5 -11
-10 -31 -11 -45 -2 -24 -3 -23 -10 5 -4 17 -8 22 -9 13 0 -10 -5 -18 -11 -18
-5 0 -11 8 -11 18 -1 9 -5 4 -8 -13 -7 -28 -8 -26 -15 23 -4 28 -13 52 -18 52
-6 0 -4 8 5 18 10 10 17 23 17 29 0 6 6 14 13 16 6 3 2 6 -10 6 -25 1 -34 19
-22 42 6 11 19 15 44 13 34 -2 35 -1 35 31 0 34 21 61 39 50 6 -3 19 -1 28 4
22 13 18 12 37 5z m304 -9 c9 17 11 10 10 -37 0 -38 -5 -59 -14 -62 -8 -3 -14
-12 -14 -20 0 -7 -10 -21 -23 -29 -21 -14 -32 -13 -64 7 -1 1 -4 15 -8 31 -6
29 -6 29 10 10 17 -19 17 -19 12 20 -4 38 12 73 27 58 3 -4 6 1 6 11 0 9 4 15
9 11 5 -3 13 0 17 7 5 8 9 6 14 -7 7 -19 7 -19 18 0z m39 -22 c-3 -10 -5 -4
-5 12 0 17 2 24 5 18 2 -7 2 -21 0 -30z m33 -21 c0 -21 -2 -24 -10 -12 -13 20
-13 53 0 45 6 -3 10 -18 10 -33z m-490 14 c0 -3 -4 -8 -10 -11 -5 -3 -10 -1
-10 4 0 6 5 11 10 11 6 0 10 -2 10 -4z m-152 -28 c-2 -6 -10 -14 -16 -16 -7
-2 -10 2 -6 12 7 18 28 22 22 4z m-64 -23 c-4 -8 -8 -15 -10 -15 -2 0 -4 7 -4
15 0 8 4 15 10 15 5 0 7 -7 4 -15z m483 -42 c-3 -10 -5 -2 -5 17 0 19 2 27 5
18 2 -10 2 -26 0 -35z m-422 27 c3 -5 -1 -10 -10 -10 -9 0 -13 5 -10 10 3 6 8
10 10 10 2 0 7 -4 10 -10z m7 -39 c-5 -3 -8 -19 -7 -36 3 -36 -3 -65 -14 -65
-6 0 -8 105 -2 117 1 1 8 0 17 -4 9 -3 11 -9 6 -12z m48 -1 c0 -5 -7 -10 -16
-10 -8 0 -12 5 -9 10 3 6 10 10 16 10 5 0 9 -4 9 -10z m40 -20 c0 -5 -2 -10
-4 -10 -3 0 -8 5 -11 10 -3 6 -1 10 4 10 6 0 11 -4 11 -10z m557 -62 c-3 -8
-6 -5 -6 6 -1 11 2 17 5 13 3 -3 4 -12 1 -19z m-450 -125 c-3 -10 -5 -4 -5 12
0 17 2 24 5 18 2 -7 2 -21 0 -30z m-17 -8 c0 -8 -4 -15 -10 -15 -5 0 -10 7
-10 15 0 8 5 15 10 15 6 0 10 -7 10 -15z m0 -48 c0 -7 -4 -6 -10 3 -7 11 -10
3 -11 -30 -2 -39 -3 -40 -6 -12 -3 19 -2 41 1 49 6 16 26 9 26 -10z m396 -25
c-8 -24 -35 -37 -49 -23 -15 15 -1 39 25 43 30 5 31 3 24 -20z m44 -21 c0 -11
-6 -22 -12 -25 -10 -5 -10 -7 0 -12 16 -8 5 -24 -16 -24 -20 0 -27 47 -10 68
16 18 38 14 38 -7z m-487 -41 c-3 -11 0 -20 6 -20 6 0 10 -10 10 -22 -1 -17
-2 -19 -6 -5 -2 9 -9 17 -14 17 -5 0 -9 11 -9 25 0 14 4 25 9 25 5 0 7 -9 4
-20z m596 -52 c-1 -18 -3 -25 -6 -15 -2 9 -9 15 -14 12 -5 -4 -9 0 -9 9 0 12
8 19 28 25 1 1 1 -14 1 -31z m-549 -165 c0 -18 -4 -33 -8 -33 -5 0 -9 20 -9
45 0 28 4 41 9 33 4 -7 8 -28 8 -45z m-70 -7 c0 -7 -3 -15 -6 -19 -9 -9 -36
21 -29 32 8 13 35 2 35 -13z m17 -13 c-3 -10 -5 -4 -5 12 0 17 2 24 5 18 2 -7
2 -21 0 -30z"/>
<path d="M1335 1141 c-6 -11 9 -23 19 -14 9 9 7 23 -3 23 -6 0 -12 -4 -16 -9z"/>
<path d="M1300 1108 c0 -7 5 -20 10 -28 8 -12 10 -9 10 13 0 15 -4 27 -10 27
-5 0 -10 -6 -10 -12z"/>
<path d="M1341 974 c0 -11 3 -14 6 -6 3 7 2 16 -1 19 -3 4 -6 -2 -5 -13z"/>
<path d="M1230 950 c0 -5 5 -10 10 -10 6 0 10 5 10 10 0 6 -4 10 -10 10 -5 0
-10 -4 -10 -10z"/>
<path d="M1322 920 c0 -14 2 -19 5 -12 2 6 2 18 0 25 -3 6 -5 1 -5 -13z"/>
<path d="M1343 870 c0 -41 2 -58 4 -37 2 20 2 54 0 75 -2 20 -4 3 -4 -38z"/>
<path d="M1439 920 c-21 -23 -23 -115 -2 -135 8 -8 12 -23 9 -32 -3 -10 -1
-25 4 -33 7 -10 10 12 10 71 0 48 3 101 6 118 7 34 -3 39 -27 11z"/>
<path d="M1368 877 c-6 -130 -7 -127 19 -102 12 13 13 18 2 31 -9 11 -9 18 -1
26 17 17 15 65 -3 72 -11 4 -15 -3 -17 -27z"/>
<path d="M1364 725 c-4 -8 -3 -32 1 -53 7 -36 8 -36 17 -12 6 16 6 26 -1 28
-6 2 -8 14 -5 28 7 26 -3 33 -12 9z"/>
<path d="M1336 713 c-4 -9 -2 -21 4 -27 7 -7 10 -2 10 17 0 31 -5 34 -14 10z"/>
<path d="M1390 648 c0 -19 2 -20 10 -8 13 19 13 30 0 30 -5 0 -10 -10 -10 -22z"/>
<path d="M1298 623 c7 -3 16 -2 19 1 4 3 -2 6 -13 5 -11 0 -14 -3 -6 -6z"/>
<path d="M1295 600 c-3 -5 -1 -10 4 -10 6 0 11 5 11 10 0 6 -2 10 -4 10 -3 0
-8 -4 -11 -10z"/>
<path d="M1341 514 c0 -11 3 -14 6 -6 3 7 2 16 -1 19 -3 4 -6 -2 -5 -13z"/>
<path d="M1606 1115 c-3 -8 -1 -15 4 -15 6 0 10 7 10 15 0 8 -2 15 -4 15 -2 0
-6 -7 -10 -15z"/>
</g>
</svg>
