<?xml version="1.0" standalone="no"?>
<!DOCTYPE svg PUBLIC "-//W3C//DTD SVG 20010904//EN"
 "http://www.w3.org/TR/2001/REC-SVG-20010904/DTD/svg10.dtd">
<svg version="1.0" xmlns="http://www.w3.org/2000/svg"
 width="371.000000pt" height="247.000000pt" viewBox="0 0 371.000000 247.000000"
 preserveAspectRatio="xMidYMid meet">

<g transform="translate(0.000000,247.000000) scale(0.100000,-0.100000)"
fill="#000000" stroke="none">
<path d="M502 1637 c-29 -29 -52 -56 -52 -60 0 -4 36 -28 81 -54 44 -27 97
-58 117 -71 20 -12 50 -29 65 -38 33 -18 38 -28 -48 106 -30 47 -63 102 -75
122 -11 20 -24 39 -28 42 -5 3 -32 -18 -60 -47z"/>
<path d="M2879 1496 c-2 -2 -69 -9 -149 -15 -80 -6 -185 -16 -235 -22 -49 -5
-169 -16 -265 -24 -96 -8 -251 -22 -345 -31 -180 -17 -404 -14 -586 6 -156 17
-429 36 -439 30 -4 -3 -14 -25 -20 -50 -6 -25 -17 -52 -23 -60 -12 -16 -118
-40 -176 -40 -17 0 -31 -2 -31 -4 0 -3 9 -26 54 -131 37 -86 50 -135 38 -147
-7 -7 -12 -19 -12 -28 -1 -8 -9 -33 -20 -55 -32 -66 -28 -75 32 -75 29 0 149
7 268 15 527 35 656 40 1139 40 360 0 505 3 508 11 13 38 27 42 186 51 86 6
159 12 162 15 2 2 -26 66 -64 142 l-69 138 40 67 c21 36 52 86 68 111 16 25
29 48 29 53 1 7 -82 10 -90 3z m-1625 -252 c13 -5 16 -22 16 -85 l0 -79 40 0
c38 0 40 -2 40 -30 l0 -31 -67 3 -68 3 -3 99 c-4 126 0 136 42 120z m286 -9
c34 -17 60 -62 60 -100 0 -51 -66 -115 -119 -115 -34 0 -88 39 -106 76 -22 47
-12 86 31 124 40 34 86 40 134 15z m245 3 c27 -12 30 -24 15 -48 -7 -12 -12
-12 -34 0 -53 28 -104 -29 -77 -86 8 -19 18 -24 46 -24 32 0 35 2 35 29 0 34
36 54 51 30 11 -18 11 -60 0 -77 -11 -18 -59 -42 -82 -42 -32 0 -85 31 -103
60 -56 96 46 205 149 158z m135 -102 c0 -60 -4 -108 -10 -111 -6 -3 -19 -3
-30 0 -18 6 -20 15 -20 111 l0 104 30 0 30 0 0 -104z m134 65 c15 -22 37 -48
48 -58 20 -18 20 -17 18 17 -4 72 -2 80 25 80 l26 0 -3 -107 c-3 -93 -5 -108
-20 -111 -20 -4 -52 27 -101 98 l-17 24 0 -51 c0 -53 -17 -80 -45 -69 -12 4
-15 26 -15 111 l0 105 29 0 c22 0 35 -9 55 -39z"/>
<path d="M1447 1182 c-20 -22 -22 -73 -5 -90 18 -18 63 -14 81 6 21 23 21 46
1 77 -19 30 -54 32 -77 7z"/>
<path d="M3097 1398 c-70 -55 -126 -102 -125 -103 2 -1 35 4 73 11 39 8 111
22 161 31 l91 18 -12 30 c-26 68 -48 115 -54 115 -3 0 -64 -46 -134 -102z"/>
<path d="M2725 858 c7 -24 21 -62 32 -85 l18 -42 44 38 44 38 -54 33 c-30 18
-64 39 -76 47 l-21 14 13 -43z"/>
</g>
</svg>
